<?xml version="1.0" encoding="UTF-8" standalone="no"?>
<!-- Created with Inkscape (http://www.inkscape.org/) -->

<svg
   xmlns:dc="http://purl.org/dc/elements/1.1/"
   xmlns:cc="http://creativecommons.org/ns#"
   xmlns:rdf="http://www.w3.org/1999/02/22-rdf-syntax-ns#"
   xmlns:svg="http://www.w3.org/2000/svg"
   xmlns="http://www.w3.org/2000/svg"
   xmlns:sodipodi="http://sodipodi.sourceforge.net/DTD/sodipodi-0.dtd"
   xmlns:inkscape="http://www.inkscape.org/namespaces/inkscape"
   width="32px"
   height="32px"
   id="svg3952"
   version="1.1"
   inkscape:version="0.48.1 "
   sodipodi:docname="stander.svg">
  <defs
     id="defs3954" />
  <sodipodi:namedview
     id="base"
     pagecolor="#ffffff"
     bordercolor="#666666"
     borderopacity="1.0"
     inkscape:pageopacity="0.0"
     inkscape:pageshadow="2"
     inkscape:zoom="11.313708"
     inkscape:cx="5.347268"
     inkscape:cy="16.208395"
     inkscape:current-layer="layer1"
     showgrid="true"
     inkscape:grid-bbox="true"
     inkscape:document-units="px"
     inkscape:window-width="1366"
     inkscape:window-height="706"
     inkscape:window-x="-8"
     inkscape:window-y="-8"
     inkscape:window-maximized="1" />
  <metadata
     id="metadata3957">
    <rdf:RDF>
      <cc:Work
         rdf:about="">
        <dc:format>image/svg+xml</dc:format>
        <dc:type
           rdf:resource="http://purl.org/dc/dcmitype/StillImage" />
        <dc:title></dc:title>
      </cc:Work>
    </rdf:RDF>
  </metadata>
  <g
     id="layer1"
     inkscape:label="Layer 1"
     inkscape:groupmode="layer">
    <rect
       style="fill:#000000"
       id="rect3009"
       width="31.999996"
       height="31.999996"
       x="1.4662387e-006"
       y="3.8146973e-006" />
    <path
       sodipodi:type="arc"
       style="fill:#ffffff"
       id="path3011"
       sodipodi:cx="381.42856"
       sodipodi:cy="480.93362"
       sodipodi:rx="160"
       sodipodi:ry="160"
       d="m 541.42856,480.93362 a 160,160 0 1 1 -320,0 160,160 0 1 1 320,0 z"
       transform="matrix(0.09999999,0,0,0.09999999,-22.142854,-32.093357)" />
    <path
       sodipodi:type="arc"
       style="fill:#000000"
       id="path3015"
       sodipodi:cx="332.85715"
       sodipodi:cy="466.64789"
       sodipodi:rx="150"
       sodipodi:ry="150"
       d="m 482.85715,466.64789 a 150,150 0 1 1 -300,0 150,150 0 1 1 300,0 z"
       transform="matrix(0.09333333,0,0,0.09333333,-15.066668,-27.553801)" />
    <path
       style="fill:#808080"
       d="m 17.501554,15.17708 8.130405,-8.0734608 0,8.0734608 z"
       id="rect3037-3-5-29"
       inkscape:connector-curvature="0"
       sodipodi:nodetypes="cccc" />
    <path
       style="fill:#808080"
       d="m 16.557755,17.239807 8.073461,8.130405 -8.073461,0 z"
       id="rect3037-3-5-2"
       inkscape:connector-curvature="0"
       sodipodi:nodetypes="cccc" />
    <path
       style="fill:#808080"
       d="m 14.495027,16.472785 -8.1304046,8.073461 0,-8.073461 z"
       id="rect3037-3-5-6"
       inkscape:connector-curvature="0"
       sodipodi:nodetypes="cccc" />
    <path
       style="fill:#808080"
       d="m 15.394633,14.499252 -8.0734607,-8.1304046 8.0734607,0 z"
       id="rect3037-3-5"
       inkscape:connector-curvature="0"
       sodipodi:nodetypes="cccc" />
    <rect
       style="fill:#ffffff"
       id="rect3821-9"
       width="2"
       height="19.799"
       x="15"
       y="-25.899498"
       transform="matrix(0,1,-1,0,0,0)" />
    <rect
       style="fill:#ffffff"
       id="rect2991-8"
       width="2"
       height="29"
       x="-1.0000015"
       y="8.1274157"
       transform="matrix(0.70710678,-0.70710678,0.70710678,0.70710678,0,0)" />
    <rect
       style="fill:#ffffff"
       id="rect2991-8-6"
       width="2"
       height="29"
       x="21.627417"
       y="-14.499999"
       transform="matrix(0.70710678,0.70710678,-0.70710678,0.70710678,0,0)" />
    <rect
       style="fill:#ffffff"
       id="rect3821-9-2"
       width="2"
       height="19.799"
       x="-16.999998"
       y="-25.8995"
       transform="scale(-1,-1)" />
    <rect
       style="fill:#ffffff"
       id="rect3040"
       width="10.347272"
       height="2.2200501"
       x="6.6527262"
       y="4.9298205" />
    <rect
       style="fill:#ffffff"
       id="rect3040-6"
       width="10.347272"
       height="2.2200501"
       x="14.999998"
       y="24.740105" />
    <rect
       style="fill:#ffffff"
       id="rect3040-5"
       width="10.347272"
       height="2.2200501"
       x="15"
       y="-7.2598939"
       transform="matrix(0,1,-1,0,0,0)" />
    <rect
       style="fill:#ffffff"
       id="rect3040-7"
       width="10.347272"
       height="2.2200501"
       x="6.6527281"
       y="-26.960154"
       transform="matrix(0,1,-1,0,0,0)" />
  </g>
</svg>
